<svg width="32" height="33" viewBox="0 0 32 33" fill="none" xmlns="http://www.w3.org/2000/svg">
<path d="M24.8889 26.2297H7.11111C6.81643 26.2297 6.53381 26.1138 6.32544 25.9075C6.11706 25.7012 6 25.4214 6 25.1297V5.32968C6 5.03794 6.11706 4.75815 6.32544 4.55186C6.53381 4.34557 6.81643 4.22968 7.11111 4.22968H24.8889C25.1836 4.22968 25.4662 4.34557 25.6746 4.55186C25.8829 4.75815 26 5.03794 26 5.32968V25.1297C26 25.4214 25.8829 25.7012 25.6746 25.9075C25.4662 26.1138 25.1836 26.2297 24.8889 26.2297ZM10.4444 8.62968V13.0297H14.8889V8.62968H10.4444ZM10.4444 15.2297V17.4297H21.5556V15.2297H10.4444ZM10.4444 19.6297V21.8297H21.5556V19.6297H10.4444ZM17.1111 9.72968V11.9297H21.5556V9.72968H17.1111Z" fill="white"/>
</svg>
