<svg width="32" height="33" viewBox="0 0 32 33" fill="none" xmlns="http://www.w3.org/2000/svg">
<path d="M4 5.89634C4 5.1891 4.28095 4.51082 4.78105 4.01072C5.28115 3.51063 5.95942 3.22968 6.66667 3.22968H25.3333C26.0406 3.22968 26.7189 3.51063 27.219 4.01072C27.719 4.51082 28 5.1891 28 5.89634V24.563C28 25.2703 27.719 25.9485 27.219 26.4486C26.7189 26.9487 26.0406 27.2297 25.3333 27.2297H6.66667C5.95942 27.2297 5.28115 26.9487 4.78105 26.4486C4.28095 25.9485 4 25.2703 4 24.563V5.89634Z" fill="white"/>
<path d="M26 10.7437C26.0013 10.804 25.9785 10.8624 25.9368 10.906C25.895 10.9497 25.8377 10.9749 25.7773 10.9763H24.578L19.1353 23.0957C19.1007 23.1757 19.022 23.229 18.9373 23.2303H18.9347C18.8927 23.23 18.8518 23.2178 18.8166 23.195C18.7814 23.1722 18.7534 23.1398 18.736 23.1017L16.1533 17.7423L13.3667 23.1083C13.348 23.1457 13.3191 23.1771 13.2834 23.1988C13.2476 23.2205 13.2065 23.2316 13.1647 23.231C13.1231 23.2291 13.0829 23.2158 13.0485 23.1923C13.0141 23.1689 12.9869 23.1363 12.97 23.0983L7.46867 10.977H6.22201C6.16182 10.9749 6.10486 10.9493 6.06335 10.9057C6.02184 10.862 5.9991 10.8039 6.00001 10.7437V10.1297C5.99912 10.0997 6.00417 10.0699 6.01488 10.0419C6.02558 10.014 6.04172 9.98841 6.06236 9.96671C6.083 9.94502 6.10774 9.92763 6.13514 9.91555C6.16254 9.90347 6.19207 9.89694 6.22201 9.89633H10.66C10.6899 9.89694 10.7195 9.90347 10.7469 9.91555C10.7743 9.92763 10.799 9.94502 10.8197 9.96671C10.8403 9.98841 10.8564 10.014 10.8671 10.0419C10.8778 10.0699 10.8829 10.0997 10.882 10.1297V10.7437C10.8833 10.8039 10.8606 10.8622 10.819 10.9058C10.7774 10.9494 10.7202 10.9748 10.66 10.9763H9.70467L13.502 20.1417L15.478 16.2797L12.9733 10.9777H12.3707C12.3103 10.9761 12.253 10.9506 12.2114 10.9069C12.1698 10.8632 12.1472 10.8047 12.1487 10.7443V10.1297C12.1487 10.0023 12.248 9.89767 12.3707 9.89767H15.6533C15.6832 9.89827 15.7126 9.90476 15.7399 9.91676C15.7672 9.92875 15.7919 9.94602 15.8125 9.96758C15.8331 9.98913 15.8493 10.0145 15.8601 10.0424C15.8709 10.0702 15.876 10.0998 15.8753 10.1297V10.7443C15.8753 10.8723 15.776 10.9777 15.6533 10.9777H15.0753L16.5167 14.2763L18.2313 10.9777H17.18C17.15 10.9771 17.1204 10.9707 17.0929 10.9586C17.0655 10.9466 17.0406 10.9292 17.0199 10.9075C16.9992 10.8858 16.983 10.8602 16.9723 10.8322C16.9615 10.8042 16.9565 10.7743 16.9573 10.7443V10.1297C16.9566 10.0998 16.9618 10.0701 16.9727 10.0422C16.9835 10.0143 16.9997 9.98891 17.0204 9.96734C17.0411 9.94578 17.0659 9.92852 17.0933 9.91657C17.1206 9.90461 17.1501 9.89818 17.18 9.89767H20.3693C20.494 9.89767 20.5913 10.0017 20.5913 10.1297V10.7443C20.5922 10.7743 20.5872 10.8041 20.5765 10.832C20.5658 10.86 20.5496 10.8856 20.529 10.9073C20.5083 10.929 20.4836 10.9464 20.4562 10.9585C20.4288 10.9705 20.3993 10.9771 20.3693 10.9777H19.6693L17.1647 15.7383L19.2067 20.1277L23.1433 10.9777H21.8953C21.8349 10.9761 21.7776 10.9507 21.7359 10.9069C21.6941 10.8632 21.6714 10.8048 21.6727 10.7443V10.1297C21.6727 10.0023 21.7727 9.89767 21.8953 9.89767H25.7767C25.8066 9.89818 25.836 9.90461 25.8634 9.91657C25.8908 9.92852 25.9156 9.94578 25.9363 9.96734C25.957 9.98891 25.9732 10.0143 25.984 10.0422C25.9948 10.0701 26 10.0998 25.9993 10.1297V10.7437H26Z" fill="#03172B"/>
</svg>
