<svg width="32" height="33" viewBox="0 0 32 33" fill="none" xmlns="http://www.w3.org/2000/svg">
<path d="M29.41 8.48969C29.2507 7.89773 28.9386 7.358 28.5052 6.92452C28.0717 6.49105 27.532 6.17902 26.94 6.01969C24.76 5.42969 16 5.42969 16 5.42969C16 5.42969 7.24 5.42969 5.06 6.01969C4.46804 6.17902 3.92832 6.49105 3.49484 6.92452C3.06136 7.358 2.74934 7.89773 2.59 8.48969C2.18295 10.713 1.98542 12.9695 2 15.2297C1.98542 17.4899 2.18295 19.7464 2.59 21.9697C2.74934 22.5616 3.06136 23.1014 3.49484 23.5349C3.92832 23.9683 4.46804 24.2803 5.06 24.4397C7.24 25.0297 16 25.0297 16 25.0297C16 25.0297 24.76 25.0297 26.94 24.4397C27.532 24.2803 28.0717 23.9683 28.5052 23.5349C28.9386 23.1014 29.2507 22.5616 29.41 21.9697C29.8171 19.7464 30.0146 17.4899 30 15.2297C30.0146 12.9695 29.8171 10.713 29.41 8.48969ZM13.2 19.4297V11.0297L20.47 15.2297L13.2 19.4297Z" fill="white"/>
</svg>
